<svg xmlns="http://www.w3.org/2000/svg" viewBox="0 0 532.57 291.06"><defs><style>.cls-1{fill:#9e9d9e;stroke:#9e9d9e;}.cls-1,.cls-2,.cls-3{stroke-miterlimit:10;}.cls-2,.cls-3{fill:none;stroke-width:7px;}.cls-2{stroke:#9d9c9e;}.cls-3{stroke:#9c9b9d;}.cls-4{font-size:34px;fill:#9d9c9e;font-family:HelveticaNeue-Thin, Helvetica Neue;letter-spacing:0.5em;}.cls-5{font-size:13px;letter-spacing:0.4em;}.cls-6{letter-spacing:0.35em;}.cls-7{letter-spacing:0.42em;}.cls-8{letter-spacing:0.4em;}.cls-9{letter-spacing:0.36em;}</style></defs><title>portfolio_logo</title><g id="signature"><path class="cls-1" d="M19.55,220.24l91.31-89.1s21-20.06,9.54,7.13L80.87,208.61s-5.58,15.55,8.44,4.17l143-145.54a6.5,6.5,0,0,0,1.77-3.37c.31-1.71.32-3.39-2.73-2.72a10.13,10.13,0,0,0-3.42,1.48l-88,57.47s-3.94,3-.33,4.46a6.44,6.44,0,0,0,2.21.44l109.66,4.47s11.9.84,1.79,8.82l-113.14,73c-2.17,1.17-1.34,3.18.68,2.44l210-94.28S156.29,218,135.58,218.71c-4.55.16-6.91-5.14-3.3-7.9,16.53-12.64,55-40.47,111.4-72.45a2.26,2.26,0,0,0-1.1-4.24c-23.18-.1-84.78-3.38-104-5.46a6.59,6.59,0,0,1-3.82-11.36l.2-.18a16.49,16.49,0,0,1,2.07-1.56l88.08-57.69a17.61,17.61,0,0,1,8.47-2.93c4-.27,8.35,1,6.28,8.22A19.26,19.26,0,0,1,235,71.3L98.58,212.37c-6.92,7-11.07,8.22-14,9.72-4.92,2.51-11.2,3.93-10.84-5.43a21,21,0,0,1,2.58-9.15l37.31-69.2a.7.7,0,0,0-1.08-.85Z" transform="translate(-4.1 -3.72)"/></g><g id="square"><line id="left" class="cls-2" x1="3.5" y1="3.5" x2="3.5" y2="287.55"/><line id="top" class="cls-2" y1="3.5" x2="287.35" y2="3.5"/><line id="bottom" class="cls-3" y1="287.55" x2="285.65" y2="287.55"/><line id="right_upper" class="cls-2" x1="283.85" y1="2.6" x2="283.85" y2="127.79"/><line id="right_lower" class="cls-2" x1="283.85" y1="169.87" x2="283.85" y2="291.06"/></g><g id="name"><text class="cls-4" transform="translate(301.66 194.15)">NICK <tspan class="cls-5"><tspan x="0" y="24">SHAH</tspan><tspan class="cls-6" x="54.12" y="24">F</tspan><tspan class="cls-7" x="65.3" y="24">A</tspan><tspan class="cls-8" x="78.52" y="24">Z</tspan><tspan class="cls-9" x="90.7" y="24">L</tspan><tspan class="cls-8" x="101.93" y="24">OLLAHI</tspan></tspan></text></g></svg>